<svg xmlns="http://www.w3.org/2000/svg" xmlns:xlink="http://www.w3.org/1999/xlink" width="62" height="62" version="1.1" style=""><rect id="backgroundrect" width="100%" height="100%" x="0" y="0" fill="none" stroke="none"/>
    <title>Buttom</title>
    
<g class="currentLayer" style=""><title>Layer 1</title><g id="Modules" stroke="none" stroke-width="1" fill="none" fill-rule="evenodd" class="selected" transform="rotate(-180 31.000000000000004,30.999999999999996) ">
        <g id="Assignment---3-modules-fullscreen" fill="#00ACCD">
            <g id="Group-6">
                <g id="Group">
                    <path d="M31,0 C48.12082720000001,0 62,13.879172799999992 62,31 C62,48.12082720000001 48.12082720000001,62 31,62 C13.879172799999992,62 1.1102230246251565e-16,48.12082720000001 1.1102230246251565e-16,31 C1.1102230246251565e-16,13.879172799999992 13.879172799999992,0 31,0 zM31,0.9687500000000002 C14.414198599999963,0.9687500000000002 0.96875,14.414198599999963 0.96875,31 C0.96875,47.58580140000004 14.414198599999963,61.03125 31,61.03125 C47.58580140000004,61.03125 61.03125,47.58580140000004 61.03125,31 C61.03125,14.414198599999963 47.58580140000004,0.9687500000000002 31,0.9687500000000002 z" id="Oval"/>
                    <g id="Path">
                        <polygon points="37.99695008993149,24 45.00000184774399,30.99542236328125 37.99695008993149,38 37.29705995321274,37.3004150390625 43.14337342977524,31.5211181640625 16.999999940395355,31.52154541015625 16.999999940395355,30.5322265625 43.14337342977524,30.53173828125 37.29077333211899,24.70587158203125 " id="svg_1"/>
                    </g>
                </g>
            </g>
        </g>
    </g></g></svg>