<svg xmlns="http://www.w3.org/2000/svg" xmlns:xlink="http://www.w3.org/1999/xlink" version="1.1" style="" xml:space="preserve" width="370" height="97"><rect id="backgroundrect" width="100%" height="100%" x="0" y="0" fill="none" stroke="none"/>
<style type="text/css">
	.st0{fill:#7F8080;}
</style>

<g class="currentLayer" style=""><title>Layer 1</title><g id="XMLID_31_" class="selected" fill="#000000" fill-opacity="1">
	<path id="XMLID_33_" class="st0" d="M179.20000232458113,26.199999237060553 c-3.1,0 -4.8,0.3000000000000001 -7.3,1.5 c-4.6,2.1 -8,5.5 -11,11 l-1,1.7000000000000002 l0.1,-3.1 c0.1,-1.7000000000000002 0.2,-4.8 0.3000000000000001,-7 l0.1,-3.9 h-0.7000000000000002 c-0.8,0 -27.2,5.3 -28,5.6 c-0.5,0.2 -0.6000000000000002,0.4 -0.6000000000000002,1.7000000000000002 c0,1.3 0.1,1.5 0.6000000000000002,1.6 c0.3000000000000001,0.1 1.5,0.3000000000000001 2.7,0.5 c2.3,0.4 3,0.8 4,2.1 c1.8,2.3 2.1,6.5 2.1,24 c0,14.3 -0.3000000000000001,21.5 -1,23.7 c-0.8,2.7 -2.3,4.1 -4.9,4.6 c-0.8,0.2 -1.9,0.4 -2.4,0.5 l-0.9,0.2 l-0.1,1.8 c-0.1,1.3 0,1.9 0.3000000000000001,2.1 c0.2,0.1 9.2,0.2 20,0.2 l19.7,-0.1 l0.1,-2.1 c0,-1.1 0,-2.1 -0.1,-2.1 c-1.5,0 -6.2,-0.6000000000000002 -7,-1 c-2.2,-0.9 -3.3,-2.9 -3.8,-7 c-0.5,-4.7 -0.9,-16.6 -0.7000000000000002,-26.2 c0.2,-9.8 0.2,-9.8 0.8,-10.5 c1.4,-1.5 5,-2.7 8.3,-2.7 c2.6,0 5.3,0.7000000000000002 8.1,2 c1.4,0.7000000000000002 2.6,1.1 2.8,1.1 c0.4,-0.1 6.8,-17.2 6.8,-18 C186.50000232458115,27.39999923706054 182.80000232458116,26.199999237060553 179.20000232458113,26.199999237060553 z" fill="#000000" fill-opacity="1"/>
	<path id="XMLID_36_" class="st0" d="M131.20000232458113,55.89999923706057 c-1.4,-11.8 -6.4,-20.4 -14.7,-25.3 c-9.2,-5.4 -23.1,-5.7 -33,-0.7000000000000002 c-7.2,3.6 -13,10.5 -15.6,18.5 c-2.7,8.2 -2.7,19 0,27.3 c1.7000000000000002,5.4 4,9.3 7.6,12.8 c4.3,4.3 9.9,7 16.4,7.9 c2.3,0.3000000000000001 9.6,0.3000000000000001 12,0 c1.1,-0.2 3.1,-0.6000000000000002 4.3,-0.9 c11.7,-3.4 19.7,-12.4 22.4,-25.2 C131.30000232458116,67.09999923706056 131.60000232458114,59.499999237060536 131.20000232458113,55.89999923706057 zM101.60000232458114,91.29999923706055 c-7.3,2.2 -12.5,-4.8 -14.5,-19.3 c-0.7000000000000002,-4.7 -0.6000000000000002,-17.5 0,-22.8 c1.4,-11.7 5,-17.6 10.7,-17.6 c2.6,0 4,0.6000000000000002 6,2.6 c4.8,4.8 7,14 7,28.4 c0,11.5 -1.2,18.7 -3.7,23.6 C105.80000232458116,88.49999923706054 103.50000232458115,90.69999923706052 101.60000232458114,91.29999923706055 z" fill="#000000" fill-opacity="1"/>
	<path id="XMLID_37_" class="st0" d="M35.20000232458115,8.899999237060541 h8.4 c9.6,0 11.2,0.2 14.6,1.9 c4.9,2.4 8.5,7.2 11.7,15.6 c1.3,3.4 1.3,3.4 4.1,2.5 l1.9,-0.6000000000000002 l-0.2,-12.3 c-0.1,-6.8 -0.3000000000000001,-12.8 -0.3000000000000001,-13.3 l-0.2,-1.1 l-36.7,-0.1 c-20.2,0 -37.1,0 -37.6,0.1 l-0.9,0.2 l0.1,2.2 l0.1,2.2 l2.8,0.3000000000000001 c3.6,0.4 5.8,1.5 7.1,3.3 c2.9,4.2 3.4,10 3.4,37.3 c0,29.1 -0.6000000000000002,36.2 -3.4,39.8 c-1.4,1.9 -2.6,2.5 -5.9,3.1 c-4.3,0.8 -4.1,0.7000000000000002 -4.1,2.9 c0,1.2 0.1,1.9 0.3000000000000001,2 c0.5,0.2 47.4,0.2 47.9,0 c0.6000000000000002,-0.2 0.6000000000000002,-3.7 0,-4 c-0.3000000000000001,-0.1 -1.8,-0.4 -3.5,-0.7000000000000002 c-1.7000000000000002,-0.3000000000000001 -3.5,-0.7000000000000002 -4.1,-0.9 c-3.1,-1.3 -4.8,-5 -5.4,-11.7 c-0.5,-4.8 -0.8,-13.7 -0.8,-20.2 v-6 l2.9,0.1 c6.1,0.2 9.2,0.5 10.5,1.1 c2.8,1.2 5,4.6 6.1,9.4 l0.6000000000000002,2.5 l2.2,0.1 l2.2,0.1 v-32 l-2.2,0.1 l-2.2,0.1 l-0.6000000000000002,2.5 c-1.2,4.9 -3.2,7.9 -6.2,9.3 c-1.2,0.6000000000000002 -2.1,0.7000000000000002 -4.9,0.9 c-1.9,0.1 -4.6,0.2 -5.9,0.2 l-2.5,0 l0,-7.9 c0,-7.9 0.4,-24.8 0.7000000000000002,-27.4 L35.20000232458115,8.899999237060541 z" fill="#000000" fill-opacity="1"/>
	<path id="XMLID_38_" class="st0" d="M368.30000232458116,65.29999923706055 c-2.2,-4.5 -6.4,-7.5 -15,-11.1 c-7,-2.9 -10.6,-5 -12.7,-7.3 c-1.8,-1.9 -2.3,-3.5 -2.1,-6.3 c0.2,-2.6 0.8,-4.2 2.5,-6 c2.1,-2.3 5.1,-3.1 8.6,-2.3 c5.7,1.2 9.4,5.2 12.6,13.6 c1.1,3 1.3,3.1 3.3,2.3 l1.3,-0.5 l0,-3.5 c0,-1.9 -0.1,-5.9 -0.2,-8.9 l-0.2,-5.4 l-1,-0.4 c-5.3,-2.2 -15.3,-3.6 -21.8,-3 c-7.4,0.7000000000000002 -12.9,3 -17.1,7.4 c-4.2,4.3 -6.1,9.4 -5.7,15.4 c0.3000000000000001,5 1.7000000000000002,8.5 4.8,11.7 c2.8,2.9 5.2,4.3 12.1,7 c11,4.3 14,6.9 13.9,12.2 c0,4.5 -2.4,7.8 -6.7,9.3 c-1.6,0.5 -5.5,0.5 -7.6,0 c-5.5,-1.4 -9.7,-6.2 -13.3,-15 l-0.9,-2.3 l-1.1,0.1 c-0.6000000000000002,0 -1.4,0.2 -1.8,0.4 l-0.7000000000000002,0.4 l0.1,3.9 c0,2.1 0.1,6.6 0.2,9.9 l0.2,6.1 l1.2,0.5 c2.5,1.1 10.1,2.7 14.8,3.2 c0.6000000000000002,0.1 3.8,0.1 7.2,0 c5.8,-0.1 6.3,-0.1 9.2,-0.9 c8.7,-2.3 14.3,-7.1 16.8,-14.4 c0.8,-2.3 0.9,-2.9 1,-6.3 C370.10000232458117,70.49999923706054 369.70000232458113,68.19999923706052 368.30000232458116,65.29999923706055 z" fill="#000000" fill-opacity="1"/>
	<path id="XMLID_42_" class="st0" d="M301.20000232458113,28.89999923706054 c-7.3,-3.7 -18.6,-3.4 -26.8,0.6000000000000002 c-7.8,3.8 -13.2,10.2 -16.2,19.2 c-1.6,4.7 -2.1,8.4 -1.9,14.5 c0.1,3.8 0.3000000000000001,5.8 0.7000000000000002,7.6 c3.1,13.8 12.5,23.1 25.7,25.5 c2.9,0.5 9.5,0.5 12.4,0 c4.2,-0.7000000000000002 9,-2.6 12.1,-4.7 c3.7,-2.5 7.5,-6.3 7.5,-7.5 c0,-0.7000000000000002 -1.3,-2.4 -1.8,-2.4 c-0.2,0 -1.3,0.5 -2.3,1.2 c-3.6,2.4 -7.1,3.3 -12,3.3 c-6.7,0 -10.9,-1.7000000000000002 -15.2,-6 c-1.9,-1.9 -2.7,-2.9 -3.6,-4.8 c-2.1,-4.1 -3.3,-8.9 -3.5,-14.3 l-0.1,-2.3 l19.7,-0.1 l19.7,-0.1 l0.1,-1.3 c0,-0.7000000000000002 0,-2.6 -0.2,-4.3 C314.30000232458116,41.29999923706055 309.4000023245811,33.09999923706056 301.20000232458113,28.89999923706054 zM281.4000023245811,53.19999923706055 l-5,0.1 l0,-1.1 c0,-0.6000000000000002 0.2,-2.2 0.4,-3.5 c1.7000000000000002,-10.7 5.7,-17.1 10.7,-17.1 c4.6,0 7.4,6.3 8,17.9 l0.2,3.3 l-4.6,0.2 C288.50000232458115,52.999999237060536 284.10000232458117,53.09999923706056 281.4000023245811,53.19999923706055 z" fill="#000000" fill-opacity="1"/>
	<path id="XMLID_48_" class="st0" d="M229.90000232458112,27.699999237060553 c-1.6,-0.3000000000000001 -3,-0.4 -6,-0.3000000000000001 c-4.6,0.2 -7.7,0.8 -11.2,2.4 c-1.1,0.5 -2.1,1 -2.2,1 c-0.1,0 -0.1,-6.9 0,-15.4 c0.1,-12 0.1,-15.4 -0.2,-15.4 c-0.9,0 -28,5.2 -28.3,5.4 c-0.2,0.2 -0.3000000000000001,0.8 -0.3000000000000001,1.6 c0.1,1.5 -0.1,1.4 3.2,2.1 c1,0.2 2.2,0.7000000000000002 2.6,1 c1.1,0.8 2,2.5 2.7,4.9 c0.5,1.9 0.6000000000000002,3.3 0.8,16.3 c0.2,13.3 0.2,27 -0.2,52 l-0.2,10.4 l1.9,0.4 c2.8,0.6000000000000002 10.9,2 13.5,2.3 c3.9,0.4 12.9,0.3000000000000001 15.8,-0.1 c12.5,-1.9 21.9,-9.1 26.3,-20.2 c1.2,-2.9 2.3,-7.5 2.7,-10.8 c0.5,-3.9 0.2,-11.8 -0.5,-15 C247.70000232458113,38.19999923706055 240.10000232458117,29.799999237060547 229.90000232458112,27.699999237060553 zM210.90000232458112,90.39999923706057 c-0.3000000000000001,-0.9 -0.7000000000000002,-32.1 -0.6000000000000002,-44.5 l0.1,-9.7 l1.8,-0.5 c1.2,-0.3000000000000001 2.6,-0.5 4.2,-0.5 c2.3,0 2.5,0.1 4.4,1 c4.6,2.3 7.7,7.9 9.2,16.4 c0.5,3.2 0.6000000000000002,11.8 0.1,15.6 c-1.2,9.3 -4.2,16.8 -8.3,20.4 c-1.6,1.4 -3.1,2.2 -5,2.6 c-1.4,0.3000000000000001 -1.8,0.3000000000000001 -4.4,0.1 C211.40000232458112,91.09999923706056 211.20000232458113,90.99999923706054 210.90000232458112,90.39999923706057 z" fill="#000000" fill-opacity="1"/>
</g></g></svg>